<svg width="512" height="481" fill="none" xmlns="http://www.w3.org/2000/svg"><path d="M448 167.8v-123a44.673 44.673 0 00-13.049-31.688A44.65 44.65 0 00403.29 0H280.36a30.619 30.619 0 00-21.51 8.89L13.09 254.58a44.86 44.86 0 000 63.34l117 117a44.84 44.84 0 0063.33 0l245.69-245.61A30.598 30.598 0 00448 167.8zM352 128a32 32 0 110-64 32 32 0 010 64z" fill="#1AA090"/><path d="M496 48a16.002 16.002 0 00-16 16v127.37L218.69 452.69a16.003 16.003 0 00-.293 22.913 16 16 0 0022.913-.293l262-262A29.837 29.837 0 00512 192V64a16.002 16.002 0 00-16-16z" fill="#1AA090"/></svg>