<svg width="84" height="72" fill="none" xmlns="http://www.w3.org/2000/svg"><path d="M75.938 22.458l6.512-6.512-5.892-5.892-7.116 7.113C65.067 14.542 59.967 13 54.5 13c-16.08 0-29.167 13.083-29.167 29.167 0 16.083 13.088 29.166 29.167 29.166 16.08 0 29.167-13.083 29.167-29.166a29.025 29.025 0 00-7.73-19.709zM54.5 63c-11.487 0-20.833-9.346-20.833-20.833 0-11.488 9.346-20.834 20.833-20.834 11.487 0 20.833 9.346 20.833 20.834C75.333 53.654 65.987 63 54.5 63z" fill="#1AA090"/><path d="M50.333 29.667h8.334v16.666h-8.334V29.667zM46.167.5h16.666v8.333H46.167V.5zM4.5 21.333h16.667v8.334H4.5v-8.334zm0 33.334h16.667V63H4.5v-8.333zM.333 38h16.625v8.333H.333V38z" fill="#1AA090"/></svg>