<svg width="22" height="22" fill="none" xmlns="http://www.w3.org/2000/svg"><path d="M17.875 2.75a2.75 2.75 0 00-2.75 2.75H13.75v1.375h4.125V5.5H16.5c0-.819.556-1.375 1.375-1.375s1.375.556 1.375 1.375v4.125H.687V11h.817l1.052 5.22v.022a2.105 2.105 0 001.375 1.526l-.494 1.482h1.376l.45-1.375h11.473l.451 1.375h1.375l-.494-1.482c.72-.22 1.279-.798 1.44-1.526v-.021L20.496 11h.817V9.625h-.688V5.5a2.75 2.75 0 00-2.75-2.75zM2.901 11h16.22l-.967 4.963a.704.704 0 01-.687.537H4.598a.685.685 0 01-.688-.559L2.9 11z" fill="#1AA090"/></svg>