<svg width="22" height="22" fill="none" xmlns="http://www.w3.org/2000/svg"><path d="M4.125 4.125c-1.13 0-2.063.932-2.063 2.063v4.661c-.419.38-.687.922-.687 1.526v6.188h3.438v-1.375h12.375v1.375h3.437v-6.188c0-.604-.268-1.147-.688-1.526V6.187c0-1.13-.931-2.062-2.062-2.062H4.125zm0 1.375h13.75c.382 0 .688.306.688.688v4.125h-1.375v-.688c0-1.13-.932-2.063-2.063-2.063h-2.75c-.527 0-1.01.207-1.375.537a2.051 2.051 0 00-1.375-.537h-2.75c-1.13 0-2.063.932-2.063 2.063v.688H3.438V6.186c0-.381.306-.687.688-.687zm2.75 3.438h2.75c.382 0 .688.305.688.687v.688H6.186v-.688c0-.382.306-.688.688-.688zm5.5 0h2.75c.382 0 .688.305.688.687v.688h-4.126v-.688c0-.382.306-.688.688-.688zm-8.938 2.75h15.126c.381 0 .687.305.687.687v4.813h-.688v-1.375H3.438v1.374H2.75v-4.812c0-.382.306-.688.688-.688z" fill="#1AA090"/></svg>