<svg width="184" height="41" fill="none" xmlns="http://www.w3.org/2000/svg"><rect x="89.934" y=".619" width="93.265" height="39.971" rx="1" fill="#83898F"/><path d="M0 9.848h4.346l4.617 13.547c1.426-4.492 4.888-14.26 6.178-16.685 1.97-3.779 5.432-5.49 9.71-4.848l-.475 4.278c-2.648-.428-4.482.428-5.568 2.71-2.173 4.064-7.605 21.818-7.673 21.961l-.271.214-3.531.071L0 9.848zm27.295 3.422H24.58V9.42h9.71v3.85h-2.92v13.405h-4.074V13.27zM24.58 27.317h9.71v3.85h-9.71v-3.85zm17.994-17.47h4.21l6.518 12.55V9.847h4.074v21.178l-.272.142h-3.938l-6.518-12.62v12.62h-4.074V9.847z" fill="#83898F"/><path d="M165.105 26.898v-3.28h6.111V19.34h-12.629v4.278h2.376v7.559h13.308v-4.279h-9.166zm0-13.118h8.555V9.5h-12.697v9.056h4.142V13.78zm-62.331.355h-6.178v-4.35h16.431v4.35h-6.179v17.042h-4.142V14.135h.068z" fill="#121B25"/><path d="M78.22 18.403H62.469v4.136h15.753v-4.136z" fill="#83898F"/><path d="M145.482 21.195v3.85h4.617c-1.087 1.142-2.445 1.855-4.074 1.855-3.327 0-6.043-2.852-6.043-6.346s2.716-6.346 6.043-6.346c2.308 0 4.413 1.354 5.432 3.565l3.598-2.068c-1.765-3.565-5.228-5.776-9.03-5.776-5.636 0-10.117 4.778-10.117 10.625s4.549 10.695 10.117 10.695c3.87 0 7.469-2.068 9.098-6.132v-3.85h-9.641v-.072zm-19.351-11.124l-3.802.072s-4.821 15.758-7.197 21.177h18.264l-7.265-21.249zm-5.092 17.398c1.29-3.494 2.58-7.344 3.327-9.697l3.327 9.697h-6.654z" fill="#121B25"/></svg>