<svg width="136" height="33" fill="none" xmlns="http://www.w3.org/2000/svg"><path d="M23.856 1.812h-5.38l-6.49 16.838L5.5 1.811H.2l11.788 30.573L23.856 1.812zm11.948 0h-4.985v30.572h4.985V1.812zm17.881 22.725c6.014 0 10.998-5.069 10.998-11.363 0-6.212-4.905-11.362-10.998-11.362-6.092 0-10.998 5.15-10.998 11.362 0 6.294 4.985 11.363 10.998 11.363zm0-17.657c3.402 0 6.093 2.78 6.093 6.294 0 3.515-2.69 6.294-6.093 6.294-3.402 0-6.092-2.779-6.092-6.294 0-3.515 2.69-6.294 6.092-6.294zm9.652 20.436H43.794v5.068h19.543v-5.069zm24.133 0H76.55V1.812h-4.905v30.572H87.47v-5.068zm27.059 0H99.733v-7.684h12.264v-5.068H99.733V6.962h14.796v-5.15H94.748v30.572h19.781v-5.068zm10.918 5.068h4.906V6.962h4.905v-5.15h-14.795v5.15h4.984v25.422z" fill="#83898F"/><path d="M53.685 25.844c6.725 0 12.185-5.64 12.185-12.588C65.87 6.308 60.41.667 53.685.667 46.959.667 41.5 6.307 41.5 13.256c-.079 6.948 5.46 12.588 12.185 12.588zm0-24.523c6.409 0 11.552 5.314 11.552 11.935 0 6.54-5.143 11.934-11.552 11.934s-11.552-5.313-11.552-11.934c0-6.621 5.143-11.935 11.552-11.935z" fill="#83898F"/></svg>