<svg width="181" height="48" fill="none" xmlns="http://www.w3.org/2000/svg"><path d="M22.655 27.057c-.172 2.378-1.053 4.25-2.642 5.616-1.578 1.367-3.663 2.05-6.254 2.05-2.833 0-5.065-.952-6.694-2.854-1.62-1.913-2.429-4.534-2.429-7.863v-1.351c0-2.125.375-3.998 1.124-5.617.749-1.619 1.816-2.859 3.203-3.719 1.396-.87 3.015-1.305 4.857-1.305 2.55 0 4.605.683 6.163 2.049 1.559 1.366 2.46 3.284 2.702 5.753h-4.554c-.111-1.427-.51-2.459-1.199-3.096-.678-.648-1.715-.972-3.112-.972-1.518 0-2.656.546-3.415 1.64-.75 1.082-1.134 2.767-1.154 5.054v1.67c0 2.388.36 4.134 1.078 5.237.728 1.103 1.872 1.655 3.43 1.655 1.407 0 2.454-.32 3.143-.957.698-.647 1.098-1.644 1.199-2.99h4.554zM45.16 24.84h-8.743v5.92h10.261v3.66H31.863V12.316h14.785v3.689H36.417v5.267h8.743v3.568zm22.885 5.025h-7.984l-1.518 4.554H53.7l8.228-22.102h4.22L74.42 34.42h-4.843l-1.533-4.554zm-6.755-3.688h5.526l-2.778-8.273-2.748 8.273zm36.229-10.171h-6.77v18.413h-4.555V16.006h-6.679v-3.689H97.52v3.689zm26.816 18.414h-4.554v-9.473h-8.88v9.472h-4.554V12.317h4.554v8.956h8.88v-8.956h4.554V34.42zm23.507-9.58h-8.743v5.92h10.261v3.66h-14.815V12.316h14.785v3.689h-10.231v5.267h8.743v3.568zm21.869 3.78c0-.86-.304-1.518-.911-1.973-.607-.465-1.7-.951-3.279-1.457-1.579-.516-2.829-1.022-3.75-1.518-2.509-1.356-3.764-3.183-3.764-5.48 0-1.194.334-2.257 1.002-3.188.678-.941 1.644-1.675 2.899-2.2 1.265-.527 2.682-.79 4.25-.79 1.579 0 2.986.288 4.22.865 1.235.567 2.191 1.371 2.869 2.414.689 1.042 1.033 2.226 1.033 3.552h-4.554c0-1.012-.319-1.797-.957-2.353-.637-.567-1.533-.85-2.686-.85-1.114 0-1.979.238-2.596.713-.618.466-.926 1.083-.926 1.852 0 .719.359 1.32 1.078 1.806.728.486 1.796.942 3.203 1.367 2.59.779 4.478 1.745 5.662 2.899 1.184 1.154 1.776 2.59 1.776 4.311 0 1.913-.724 3.415-2.171 4.509-1.447 1.082-3.395 1.624-5.844 1.624-1.7 0-3.249-.309-4.645-.926-1.397-.628-2.464-1.483-3.203-2.566-.729-1.083-1.093-2.337-1.093-3.764h4.569c0 2.439 1.457 3.658 4.372 3.658 1.083 0 1.928-.218 2.535-.653.607-.445.911-1.062.911-1.852zM0 0h180.978v2.22H0V0zm0 45.522h180.978v2.22H0v-2.22z" fill="#83898F"/></svg>