<svg width="166" height="66" fill="none" xmlns="http://www.w3.org/2000/svg"><path d="M16.569 15.736C7.564 15.736.236 23.441.236 32.908c0 9.468 7.328 17.172 16.333 17.172 9.004 0 16.332-7.704 16.332-17.172 0-9.467-7.328-17.172-16.332-17.172zm8.88 25.007a12.41 12.41 0 01-1.739 1.306c-.62.457-1.366.784-2.111 1.176-.745.326-1.615.587-2.484.783-.87.196-1.801.327-2.795.327-1.428 0-2.732-.196-3.788-.523-1.056-.326-1.925-.783-2.608-1.436a5.113 5.113 0 01-1.49-2.155c-.311-.849-.497-1.697-.497-2.677 0-1.371.31-2.481.869-3.395.559-.914 1.366-1.698 2.298-2.35-.497-.523-.87-1.176-1.18-1.96a5.957 5.957 0 01-.497-2.415c0-.915.186-1.829.497-2.612.31-.784.807-1.502 1.366-2.09a6.652 6.652 0 012.112-1.37c.807-.327 1.676-.458 2.608-.458a7.39 7.39 0 012.794.523c.87.326 1.553.783 2.174 1.37.62.588 1.055 1.307 1.366 2.09a7.3 7.3 0 01.497 2.677c0 1.11-.31 2.09-.87 2.938-.558.85-1.242 1.567-2.049 2.22l2.857 2.547c.248-.261.497-.523.745-.849.248-.261.559-.653.931-1.175l4.223 3.787a14.059 14.059 0 01-1.49 1.893 11.812 11.812 0 01-1.739 1.828zm-1.615-3.068c-.372.392-.807.718-1.18 1.044a15.657 15.657 0 01-2.732 1.502c-1.056.457-2.298.653-3.726.653-.497 0-.994-.065-1.553-.196a5.537 5.537 0 01-1.428-.587 2.949 2.949 0 01-1.056-1.11c-.31-.458-.434-1.045-.434-1.698 0-.98.248-1.698.807-2.285.497-.588 1.242-1.11 2.236-1.633l.931-.522 4.968 4.31.621-.458-4.844-4.244c1.18-.653 2.112-1.371 2.795-2.154.683-.784 1.056-1.698 1.056-2.808 0-.588-.125-1.11-.31-1.567-.25-.457-.498-.914-.932-1.24a4.046 4.046 0 00-1.367-.784c-.496-.196-1.055-.261-1.676-.261-.497 0-.994.065-1.49.26a4.417 4.417 0 00-1.305.784c-.372.327-.683.784-.931 1.24-.249.458-.31 1.046-.31 1.633 0 .849.185 1.567.62 2.155.435.653.994 1.24 1.739 1.893l.807.719-.745.391c-.435.262-.931.523-1.304.784-.435.326-.745.653-1.056.98-.31.391-.559.783-.683 1.24-.186.457-.248.98-.248 1.502 0 .718.124 1.37.434 1.958.31.588.684.98 1.18 1.372.497.326 1.056.653 1.677.783.621.196 1.304.261 1.987.261 1.429 0 2.733-.26 3.913-.718a14.058 14.058 0 002.918-1.632 14.856 14.856 0 002.485-2.416l-.622-.457-1.242 1.306zm-9.066-6.595c-.87-.718-1.367-1.371-1.677-1.893a3.621 3.621 0 01-.373-1.568c0-.914.31-1.697.87-2.285a3.207 3.207 0 012.298-.914c.434 0 .869.065 1.242.196.434.13.745.326 1.117.588.31.26.56.587.746.979.186.392.31.849.31 1.371 0 1.045-.31 1.894-.931 2.547-.622.653-1.49 1.24-2.67 1.893l-.932-.914zm2.173-2.677c.187-.261.31-.588.31-.98 0-.848-.372-1.24-1.18-1.24-.372 0-.62.13-.869.326-.248.262-.31.523-.31.915 0 .326.062.587.186.914.124.26.435.587.808.98a5.674 5.674 0 001.055-.915zm-2.484 8.75c0 .522.186.913.621 1.175.373.26.87.391 1.366.391.31 0 .621 0 .994-.065.31-.065.621-.13.931-.261l-3.042-2.742c-.621.391-.87.914-.87 1.501z" fill="#83898F"/><path d="M17.252 0h-1.367v17.303h1.367V0zm0 46.685h-1.367v19.197h1.367V46.685zM58.3 29.934c-2.426 0-4.622-.531-6.586-1.594-1.94-1.087-3.466-2.565-4.575-4.437-1.11-1.895-1.664-4.02-1.664-6.378 0-2.357.555-4.471 1.664-6.343 1.109-1.895 2.646-3.374 4.61-4.437 1.964-1.086 4.16-1.629 6.586-1.629 1.895 0 3.627.324 5.199.97a10.474 10.474 0 014.02 2.808l-2.252 2.184C63.476 9.16 61.2 8.201 58.473 8.201c-1.802 0-3.431.404-4.887 1.213a8.885 8.885 0 00-3.432 3.363c-.808 1.409-1.213 2.992-1.213 4.748 0 1.756.405 3.35 1.213 4.783a8.96 8.96 0 003.432 3.328c1.456.809 3.085 1.213 4.887 1.213 2.704 0 4.98-.97 6.829-2.912l2.253 2.184a10.752 10.752 0 01-4.056 2.843c-1.571.646-3.304.97-5.199.97zM74.163 14.37c.578-1.062 1.433-1.87 2.565-2.425 1.132-.555 2.507-.832 4.125-.832v3.223a6.499 6.499 0 00-.763-.034c-1.802 0-3.223.543-4.263 1.629-1.017 1.063-1.525 2.588-1.525 4.575v9.15h-3.328v-18.37h3.19v3.085zm26.185 6.205c0 .255-.023.59-.069 1.006H85.374c.208 1.617.913 2.923 2.114 3.916 1.225.97 2.739 1.456 4.541 1.456 2.195 0 3.963-.74 5.303-2.218l1.837 2.149c-.831.97-1.871 1.71-3.12 2.218-1.224.508-2.599.763-4.124.763-1.94 0-3.662-.393-5.165-1.179-1.502-.809-2.668-1.93-3.5-3.362-.81-1.433-1.214-3.05-1.214-4.853 0-1.779.393-3.385 1.179-4.818.809-1.432 1.906-2.542 3.293-3.327 1.41-.809 2.992-1.213 4.748-1.213 1.757 0 3.316.404 4.68 1.213 1.386.785 2.46 1.895 3.223 3.327.786 1.433 1.179 3.074 1.179 4.922zm-9.082-6.655c-1.594 0-2.934.486-4.02 1.456-1.063.97-1.687 2.242-1.872 3.813h11.785c-.185-1.548-.82-2.808-1.906-3.778-1.063-.994-2.392-1.49-3.987-1.49zm18.845-2.807c2.541 0 4.483.624 5.823 1.871 1.363 1.248 2.045 3.108 2.045 5.581v11.092h-3.154V27.23c-.555.855-1.352 1.514-2.392 1.976-1.017.44-2.23.659-3.64.659-2.056 0-3.708-.497-4.956-1.49-1.225-.994-1.837-2.3-1.837-3.918 0-1.617.589-2.911 1.768-3.882 1.178-.993 3.05-1.49 5.615-1.49h5.268v-.659c0-1.432-.416-2.53-1.248-3.292-.831-.763-2.056-1.144-3.674-1.144a9.455 9.455 0 00-3.189.554c-1.039.347-1.917.82-2.634 1.421l-1.386-2.495c.947-.763 2.079-1.34 3.397-1.733a13.848 13.848 0 014.194-.624zm-.763 16.187c1.271 0 2.369-.278 3.293-.832.924-.578 1.594-1.387 2.01-2.427v-2.564h-5.13c-2.819 0-4.228.947-4.228 2.842 0 .924.358 1.652 1.074 2.184.716.531 1.71.797 2.981.797zm24.078 1.282c-.485.416-1.086.74-1.802.97a7.924 7.924 0 01-2.219.313c-1.848 0-3.281-.497-4.298-1.49-1.016-.994-1.525-2.416-1.525-4.264V14.024h-3.119v-2.738h3.119v-4.02h3.328v4.02h5.268v2.738h-5.268v9.948c0 .994.242 1.756.728 2.288.508.531 1.224.797 2.149.797 1.016 0 1.883-.289 2.599-.866l1.04 2.391zm18.977-8.007c0 .255-.023.59-.069 1.006h-14.905c.208 1.617.913 2.923 2.114 3.916 1.225.97 2.739 1.456 4.541 1.456 2.195 0 3.963-.74 5.303-2.218l1.837 2.149c-.832.97-1.871 1.71-3.119 2.218-1.225.508-2.6.763-4.125.763-1.941 0-3.663-.393-5.165-1.179-1.502-.809-2.669-1.93-3.5-3.362-.809-1.433-1.214-3.05-1.214-4.853 0-1.779.393-3.385 1.179-4.818.809-1.432 1.906-2.542 3.293-3.327 1.409-.809 2.992-1.213 4.748-1.213 1.757 0 3.316.404 4.68 1.213a8.13 8.13 0 013.223 3.327c.786 1.433 1.179 3.074 1.179 4.922zm-9.082-6.655c-1.594 0-2.934.486-4.02 1.456-1.063.97-1.687 2.242-1.872 3.813h11.785c-.185-1.548-.82-2.808-1.906-3.778-1.063-.994-2.392-1.49-3.987-1.49zm15.851.45c.578-1.062 1.433-1.87 2.565-2.425 1.133-.555 2.508-.832 4.125-.832v3.223a6.497 6.497 0 00-.762-.034c-1.803 0-3.224.543-4.264 1.629-1.017 1.063-1.525 2.588-1.525 4.575v9.15h-3.327v-18.37h3.188v3.085zM50.917 41.09v8.458h12.166v2.98H50.917v9.81h-3.466V38.075h17.123v3.015H50.917zm23.057 2.704c2.542 0 4.483.624 5.824 1.872 1.363 1.247 2.045 3.108 2.045 5.58v11.092h-3.155V59.91c-.554.855-1.351 1.514-2.391 1.976-1.017.44-2.23.659-3.64.659-2.056 0-3.709-.497-4.956-1.49-1.225-.994-1.837-2.3-1.837-3.917 0-1.618.589-2.912 1.767-3.883 1.179-.993 3.05-1.49 5.615-1.49h5.27v-.659c0-1.432-.417-2.53-1.249-3.292-.832-.763-2.056-1.144-3.674-1.144a9.454 9.454 0 00-3.189.554c-1.04.347-1.918.82-2.634 1.421l-1.386-2.495c.947-.763 2.08-1.34 3.396-1.733a13.85 13.85 0 014.194-.624zm-.762 16.187c1.27 0 2.368-.278 3.293-.832.924-.578 1.594-1.386 2.01-2.426v-2.565h-5.13c-2.819 0-4.229.947-4.229 2.842 0 .924.359 1.652 1.075 2.184.716.531 1.71.797 2.98.797zm29.667-16.014l-8.042 18.37H91.44L83.4 43.968h3.466l6.308 14.731 6.447-14.73h3.259z" fill="#83898F"/></svg>