<svg width="147" height="44" fill="none" xmlns="http://www.w3.org/2000/svg"><path d="M1.862.357V43.66" stroke="#83898F" stroke-width="3"/><path d="M21.185 16.162h5.18v1.96h-7.62V6.282h2.44v9.88zm20.096-.479h-4.277l-.814 2.44h-2.594l4.408-11.841h2.26l4.432 11.84h-2.594l-.82-2.44zm-3.619-1.976h2.96l-1.488-4.432-1.472 4.431zm18.543 1.48l2.684-8.905h2.716l-4.123 11.84h-2.546L50.83 6.282h2.708l2.667 8.905zm20.307-2.197h-4.684v3.172h5.498v1.96h-7.937V6.282h7.92v1.976h-5.48v2.822h4.683v1.91zm18.535 5.132h-2.44l-4.749-7.79v7.79h-2.44V6.282h2.44l4.757 7.807V6.282h2.432v11.84zm8.792 0V6.282h3.643c1.041 0 1.971.236 2.79.707a4.865 4.865 0 011.927 2c.461.863.691 1.844.691 2.945v.545c0 1.1-.228 2.079-.683 2.935a4.836 4.836 0 01-1.911 1.993c-.824.471-1.754.71-2.789.715h-3.668zm2.44-9.864v7.904h1.179c.954 0 1.683-.311 2.187-.935.505-.623.762-1.515.773-2.675v-.626c0-1.204-.249-2.115-.748-2.733-.499-.623-1.228-.935-2.188-.935h-1.203zm22.177 4.732h-4.684v3.172h5.498v1.96h-7.937V6.282h7.92v1.976h-5.481v2.822h4.684v1.91zm13.29.798h-1.944v4.334h-2.439V6.282h4.399c1.399 0 2.478.312 3.237.935.759.624 1.138 1.505 1.138 2.643 0 .808-.176 1.483-.528 2.025-.347.537-.876.965-1.586 1.285l2.561 4.838v.114h-2.618l-2.22-4.334zm-1.944-1.976h1.968c.613 0 1.087-.155 1.423-.464.336-.314.505-.745.505-1.293 0-.558-.16-.997-.48-1.317-.315-.32-.8-.48-1.456-.48h-1.96v3.554zM25.43 36.778h-4.277l-.813 2.44h-2.595l4.408-11.84h2.26l4.433 11.84H26.25l-.82-2.44zm-3.619-1.976h2.96l-1.488-4.432-1.472 4.432zm23.992 2.919c-.44.526-1.06.936-1.863 1.228-.802.288-1.691.431-2.667.431-1.025 0-1.925-.222-2.7-.666-.77-.45-1.366-1.101-1.789-1.952-.417-.851-.631-1.852-.642-3v-.806c0-1.182.197-2.204.593-3.066.401-.867.976-1.529 1.724-1.984.754-.46 1.635-.691 2.643-.691 1.404 0 2.502.336 3.294 1.008.791.667 1.26 1.64 1.407 2.92h-2.375c-.108-.678-.35-1.174-.724-1.489-.368-.314-.878-.471-1.529-.471-.83 0-1.46.311-1.894.935-.434.623-.654 1.55-.66 2.781v.756c0 1.242.237 2.18.708 2.814.472.634 1.163.952 2.074.952.916 0 1.57-.196 1.96-.586v-2.041h-2.22v-1.797h4.66v4.724zm15.769-3.635h-4.684v3.172h5.497v1.96H54.45v-11.84h7.92v1.976h-5.48v2.821h4.683v1.911zm18.535 5.132h-2.44l-4.75-7.79v7.79h-2.439v-11.84h2.44l4.757 7.806v-7.806h2.432v11.84zm18.087-3.944c-.092 1.274-.564 2.277-1.415 3.009-.846.731-1.963 1.097-3.35 1.097-1.518 0-2.714-.51-3.587-1.528-.867-1.025-1.3-2.43-1.3-4.213v-.724c0-1.138.2-2.141.601-3.008.401-.868.973-1.532 1.716-1.993.748-.466 1.615-.7 2.602-.7 1.366 0 2.467.367 3.302 1.099s1.317 1.759 1.447 3.082h-2.44c-.06-.765-.273-1.318-.642-1.66-.363-.346-.919-.52-1.667-.52-.813 0-1.423.293-1.83.879-.4.58-.607 1.482-.618 2.708v.894c0 1.28.193 2.215.578 2.806.39.59 1.003.886 1.838.886.753 0 1.314-.17 1.683-.512.374-.347.588-.881.642-1.602h2.44zm12.346-2.562l2.464-5.335h2.667l-3.887 7.547v4.294h-2.48v-4.294l-3.887-7.546h2.675l2.448 5.334z" fill="#83898F"/></svg>